<svg version="1.1" id="Capa_1" xmlns="http://www.w3.org/2000/svg" x="0" y="0" viewBox="0 0 512 512" style="enable-background:new 0 0 512 512" xml:space="preserve"><circle style="fill:#ffdc00" cx="256" cy="256" r="256"/><path style="fill:#ffc000" d="M511.937 261.007 388.558 137.629l-21.261 32.351-71.517-71.517-125.87 8.288-24.546 82.424L67 228.038l98.169 98.169-83.256 40.808L225.028 510.13A258.463 258.463 0 0 0 256 512c139.711 0 253.267-111.921 255.937-250.993z"/><path style="fill:#754c24" d="M295.779 185.129h-136V98.462h136v86.667zm-119-17h102v-52.666h-102v52.666z"/><path style="fill:#603813" d="M295.779 98.462h-66.173v17h49.173v52.667h-49.173v17h66.173z"/><path style="fill:#754c24" d="M81.913 152.54h291.73v214.47H81.913z"/><path style="fill:#603813" d="M229.61 152.54h144.04v214.47H229.61z"/><path style="fill:#8c6239" d="M67 137.63h321.56v90.41H67z"/><path style="fill:#754c24" d="M229.61 137.63h158.95v90.41H229.61z"/><path style="fill:#fbb03b" d="M210.22 205.24h35.11v50.757h-35.11z"/><path style="fill:#d89032" d="M229.61 205.24h15.727v50.757H229.61z"/><path style="fill:#333" d="M260.91 214.35h164.35v199.63H260.91z"/><path style="fill:#1a1a1a" d="M340.8 214.35h84.46v199.63H340.8z"/><path style="fill:#b9eaff" d="M272.27 226.07H413.9v42.956H272.27z"/><path style="fill:#35ccff" d="M340.8 226.07h73.1v42.956h-73.1z"/><circle style="fill:gray" cx="286.45" cy="299.86" r="12.471"/><circle style="fill:gray" cx="322.87" cy="299.86" r="12.471"/><circle style="fill:#666" cx="359.29" cy="299.86" r="12.471"/><circle style="fill:gray" cx="286.45" cy="341.11" r="12.471"/><circle style="fill:gray" cx="322.87" cy="341.11" r="12.471"/><circle style="fill:#666" cx="359.29" cy="341.11" r="12.471"/><circle style="fill:gray" cx="286.45" cy="382.35" r="12.471"/><circle style="fill:gray" cx="322.87" cy="382.35" r="12.471"/><circle style="fill:#666" cx="359.29" cy="382.35" r="12.471"/><circle style="fill:#ff6838" cx="398.18" cy="299.86" r="12.471"/><circle style="fill:#ff6838" cx="398.18" cy="341.11" r="12.471"/><circle style="fill:#ff6838" cx="398.18" cy="382.35" r="12.471"/></svg>