<?xml version="1.0" encoding="iso-8859-1"?>
<!-- Generator: Adobe Illustrator 19.0.0, SVG Export Plug-In . SVG Version: 6.00 Build 0)  -->
<svg version="1.1" id="Capa_1" xmlns="http://www.w3.org/2000/svg" xmlns:xlink="http://www.w3.org/1999/xlink" x="0px" y="0px" viewBox="0 0 512 512" style="enable-background: new 0 0 512 512" xml:space="preserve">
<circle style="fill: #ffdc00" cx="256" cy="256" r="256"></circle>
<path style="fill: #ffc000" d="M511.937,261.007L388.558,137.629l-21.261,32.351L295.78,98.463l-125.87,8.288l-24.546,82.424
	L67,228.038l98.169,98.169l-83.256,40.808L225.028,510.13C235.182,511.355,245.515,512,256,512
	C395.711,512,509.267,400.079,511.937,261.007z"></path>
<path style="fill: #754c24" d="M295.779,185.129h-136V98.462h136V185.129z M176.779,168.129h102v-52.666h-102L176.779,168.129
	L176.779,168.129z"></path>
<polygon style="fill: #603813" points="295.779,98.462 229.606,98.462 229.606,115.462 278.779,115.462 278.779,168.129 
	229.606,168.129 229.606,185.129 295.779,185.129 "></polygon>
<rect x="81.913" y="152.54" style="fill: #754c24" width="291.73" height="214.47"></rect>
<rect x="229.61" y="152.54" style="fill: #603813" width="144.04" height="214.47"></rect>
<rect x="67" y="137.63" style="fill: #8c6239" width="321.56" height="90.41"></rect>
<rect x="229.61" y="137.63" style="fill: #754c24" width="158.95" height="90.41"></rect>
<rect x="210.22" y="205.24" style="fill: #fbb03b" width="35.11" height="50.757"></rect>
<rect x="229.61" y="205.24" style="fill: #d89032" width="15.727" height="50.757"></rect>
<rect x="260.91" y="214.35" style="fill: #333" width="164.35" height="199.63"></rect>
<rect x="340.8" y="214.35" style="fill: #1a1a1a" width="84.46" height="199.63"></rect>
<rect x="272.27" y="226.07" style="fill: #b9eaff" width="141.63" height="42.956"></rect>
<rect x="340.8" y="226.07" style="fill: #35ccff" width="73.1" height="42.956"></rect>
<g>
	<circle style="fill: gray" cx="286.45" cy="299.86" r="12.471"></circle>
	<circle style="fill: gray" cx="322.87" cy="299.86" r="12.471"></circle>
</g>
<circle style="fill: #666" cx="359.29" cy="299.86" r="12.471"></circle>
<g>
	<circle style="fill: gray" cx="286.45" cy="341.11" r="12.471"></circle>
	<circle style="fill: gray" cx="322.87" cy="341.11" r="12.471"></circle>
</g>
<circle style="fill: #666" cx="359.29" cy="341.11" r="12.471"></circle>
<g>
	<circle style="fill: gray" cx="286.45" cy="382.35" r="12.471"></circle>
	<circle style="fill: gray" cx="322.87" cy="382.35" r="12.471"></circle>
</g>
<circle style="fill: #666" cx="359.29" cy="382.35" r="12.471"></circle>
<g>
	<circle style="fill: #ff6838" cx="398.18" cy="299.86" r="12.471"></circle>
	<circle style="fill: #ff6838" cx="398.18" cy="341.11" r="12.471"></circle>
	<circle style="fill: #ff6838" cx="398.18" cy="382.35" r="12.471"></circle>
</g>
<g>
</g>
<g>
</g>
<g>
</g>
<g>
</g>
<g>
</g>
<g>
</g>
<g>
</g>
<g>
</g>
<g>
</g>
<g>
</g>
<g>
</g>
<g>
</g>
<g>
</g>
<g>
</g>
<g>
</g>
</svg>
