<svg height="511pt" viewBox="0 0 512 511" width="511pt" xmlns="http://www.w3.org/2000/svg"><path d="M256.004.5C115.309.5.012 115.797.012 256.496c0 48.899 13.8 96.297 39.898 137.094l-38.7 98.2c-2.398 5.698-1.198 12 3.302 16.198 4.199 4.2 10.5 5.7 16.199 3.301l98.195-39.7c40.801 26.098 88.2 40.9 137.098 40.9C396.704 512.488 512 397.19 512 256.495 512 115.796 396.703.5 256.004.5zm0 0" fill="#ff641a"/><path d="M512 256.496c0 140.695-115.297 255.992-255.996 255.992V.5C396.704.5 512 115.797 512 256.496zm0 0" fill="#f03800"/><path d="M256.004 61.5c-24.899 0-44.996 20.098-44.996 44.996 0 24.899 20.097 45 44.996 45 24.902 0 45-20.101 45-45 0-24.898-20.098-44.996-45-44.996zm0 59.996c-8.399 0-15-6.601-15-15 0-8.398 6.601-15 15-15 8.402 0 15 6.602 15 15 0 8.399-6.598 15-15 15zm0 0" fill="#fdbf00"/><path d="M301.004 106.496c0 24.899-20.098 45-45 45v-30c8.402 0 15-6.601 15-15 0-8.398-6.598-15-15-15V61.5c24.902 0 45 20.098 45 44.996zm0 0" fill="#ff9100"/><path d="M361.004 226.496v104.996l-105 29.098-2.996.902-102-30V226.496c0-57.898 47.097-105 104.996-105 28.8 0 55.2 11.7 74.098 30.899 19.203 18.902 30.902 45.3 30.902 74.101zm0 0" fill="#ffda2d"/><path d="M361.004 226.496v104.996l-105 29.098V121.496c28.8 0 55.2 11.7 74.098 30.899 19.203 18.902 30.902 45.3 30.902 74.101zm0 0" fill="#fdbf00"/><path d="M316.004 391.492c0 32.996-27 59.996-60 59.996-32.996 0-59.996-27-59.996-59.996 0-6.902 1.199-13.5 3.297-20.101h113.398c2.102 6.601 3.3 13.199 3.3 20.101zm0 0" fill="#ffda2d"/><path d="M312.703 371.39c2.102 6.602 3.3 13.2 3.3 20.102 0 32.996-27 59.996-59.995 59.996v-80.097zm0 0" fill="#fdbf00"/><path d="M388.902 384.293c-3 4.496-7.8 7.2-12.898 7.2H136.008c-5.098 0-9.903-2.704-12.899-7.2-2.703-4.203-2.703-9.902-.601-14.402l28.5-38.399H361l28.5 38.399c2.102 4.5 2.102 10.199-.598 14.402zm0 0" fill="#fdbf00"/><path d="M388.902 384.293c-3 4.496-7.8 7.2-12.898 7.2h-120v-60h105l28.5 38.398c2.098 4.5 2.098 10.199-.602 14.402zm0 0" fill="#ff9100"/></svg>