<svg version="1.1" id="Layer_1" xmlns="http://www.w3.org/2000/svg" x="0" y="0" viewBox="0 0 505 505" style="enable-background:new 0 0 505 505" xml:space="preserve"><circle style="fill:#ffd05b" cx="252.5" cy="252.5" r="252.5"/><path style="fill:#ff7058" d="M371.8 106.3H187.5v292.4h184.3c4.9 0 8.9-4 8.9-8.9V115.1c0-4.9-4-8.8-8.9-8.8z"/><path style="fill:#324a5e" d="M129.4 398.7h58.1V106.3h-58.1c-2.8 0-5 2.3-5 5v282.4c-.1 2.8 2.2 5 5 5z"/><path style="fill:#e6e9ee" d="M257.9 317.4c57.4-25.7 86.3-78.7 93.3-93.2 6.8-11.4 3.1-27.2-8.5-38.1-1.7-1.6-4.5-1.3-5.9.6l-28.1 39.2c-1.4 1.9-.8 4.6 1.3 5.7 3 1.6 6.1 2.8 9.2 3.6-11.3 15.6-27.9 34.6-50.1 50.7-.8-3.3-5-9.6-6.7-12.8-1.1-2.1-3.8-2.7-5.7-1.3l-39.2 28.1c-1.9 1.4-2.2 4.1-.6 5.9 10.9 11.5 29.6 18.2 41 11.6z"/></svg>