<svg version="1.1" id="Capa_1" xmlns="http://www.w3.org/2000/svg" x="0" y="0" viewBox="0 0 512 512" style="enable-background:new 0 0 512 512" xml:space="preserve"><path style="fill:#ff8c05" d="M0 256C0 114.615 114.615 0 256 0s256 114.615 256 256-114.615 256-256 256S0 397.385 0 256z"/><path style="fill:#ffff91" d="M115.074 21.4h86.266c63.554 0 115.074 51.52 115.074 115.074v139.224c0 13.422-10.88 24.302-24.302 24.302a24.302 24.302 0 0 1-21.358-12.708l-19.404-35.744H115.074C51.52 251.548 0 200.028 0 136.474 0 72.92 51.52 21.4 115.074 21.4z"/><path style="fill:#f7d139" d="M108.107 139.108c0 11.858-9.613 21.472-21.471 21.472s-21.471-9.613-21.471-21.472 9.613-21.472 21.471-21.472 21.471 9.614 21.471 21.472zm50.1-21.471c-11.858 0-21.471 9.613-21.471 21.472s9.613 21.472 21.471 21.472 21.471-9.613 21.471-21.472-9.613-21.472-21.471-21.472zm71.571 0c-11.858 0-21.471 9.613-21.471 21.472s9.613 21.472 21.471 21.472 21.471-9.613 21.471-21.472-9.613-21.472-21.471-21.472z"/><path style="fill:#dc550a" d="m414.493 400.071-200.857 89.122c-6.126 2.719-13.023-1.767-13.023-8.469v-42.797H75.911c-26.185-25.922-46.801-57.455-59.899-92.649h184.601v-42.797c0-6.702 6.896-11.188 13.023-8.469l200.857 89.121c7.343 3.26 7.343 13.681 0 16.938z"/><path style="fill:#6cd0f5" d="M450.555 172.072h47.353C507.029 198.367 512 226.602 512 256c0 2.921-.067 5.825-.164 8.722h-61.281v42.797c0 6.702-6.896 11.188-13.023 8.469l-200.857-89.121c-7.343-3.259-7.343-13.68 0-16.938l200.857-89.122c6.126-2.719 13.023 1.767 13.023 8.469v42.796z"/></svg>